<?xml version="1.0" encoding="UTF-8" standalone="no"?>
<svg width="60px" height="61px" viewBox="0 0 60 61" version="1.1" xmlns="http://www.w3.org/2000/svg" xmlns:xlink="http://www.w3.org/1999/xlink" xmlns:sketch="http://www.bohemiancoding.com/sketch/ns">
    <!-- Generator: Sketch 3.3.1 (12005) - http://www.bohemiancoding.com/sketch -->
    <title>Facebook Share</title>
    <desc>Created with Sketch.</desc>
    <defs></defs>
    <g id="Wait-List" stroke="none" stroke-width="1" fill="none" fill-rule="evenodd" sketch:type="MSPage">
        <g id="WEB:-Incentives" sketch:type="MSArtboardGroup" transform="translate(-590.000000, -732.000000)">
            <g id="Facebook-Share" sketch:type="MSLayerGroup" transform="translate(590.000000, 732.500000)">
                <ellipse id="Oval-1" fill="#49639F" sketch:type="MSShapeGroup" cx="30" cy="30" rx="30" ry="30"></ellipse>
                <path d="M36.9999908,17.3998479 C36.9942285,18.6381243 36.9968928,19.8764307 36.996583,21.1147371 C36.996521,21.3264095 36.9956226,21.3272461 36.7717566,21.3273656 C36.0085179,21.3278137 35.2452792,21.3270668 34.4820404,21.3283216 C34.4000347,21.328471 34.318029,21.3386886 34.2360233,21.3442157 C34.2144608,21.3781251 34.177253,21.3567338 34.1490607,21.367071 C33.9556176,21.3809933 33.7638166,21.4020858 33.5721395,21.4359952 C32.8217887,21.5687349 32.3445941,22.0174148 32.2004722,22.7408955 C32.1937494,22.7747751 32.1982726,22.8108654 32.1651543,22.8348261 C32.1410204,22.8952357 32.1373957,22.9583938 32.1379843,23.0221196 C32.1689959,23.1210097 32.135227,23.2199893 32.1355678,23.3189391 C32.1389757,24.3442585 32.1369,25.3695778 32.1371168,26.3948673 C32.1876462,26.5341797 32.2571977,26.5006288 32.3132727,26.5007483 C33.8092961,26.5037359 35.3053506,26.5007483 36.8013431,26.5037658 C36.8679514,26.5352553 36.8517795,26.5988317 36.8449638,26.6445422 C36.7411477,27.34218 36.6538443,28.0418195 36.5613671,28.7408316 C36.5581452,28.7653002 36.553591,28.7900078 36.5319046,28.8072463 C36.5233229,28.8705837 36.5147413,28.933951 36.5061287,28.9973183 C36.5183041,29.2269463 36.4614856,29.4502108 36.4339438,29.6757756 C36.3809979,30.1097565 36.3189128,30.5428112 36.2585935,30.9760152 C36.2343666,31.1498346 36.2384251,31.1524637 36.0545861,31.1511193 C34.7764184,31.1417382 33.4982197,31.1553617 32.220052,31.1446661 C32.2003483,31.1444868 32.1809234,31.1547642 32.1604453,31.1518662 C32.1414541,31.1566165 32.1246626,31.1645038 32.1101947,31.176992 C32.108119,31.2615415 32.1042464,31.3461209 32.1042154,31.4306704 C32.1039366,35.1845778 32.1039676,38.9385152 32.1039676,42.6924226 C32.1039676,42.7322475 32.0993824,42.7726699 32.1046801,42.8118077 C32.1241669,42.9556613 32.0603468,43.0003859 31.9126002,42.9999975 C30.3896236,42.9960837 28.866616,42.9979062 27.3436085,42.9973086 C27.1502274,42.997219 27.1495768,42.9950381 27.1495768,42.785666 C27.1494529,39.0018825 27.1494529,35.2180989 27.1494529,31.4342854 C27.1494529,31.3994498 27.1495768,31.3645843 27.1493909,31.3297488 C27.1483376,31.1307737 27.1483066,31.1293097 26.9443921,31.1292201 C25.7104957,31.1287122 24.4765993,31.1290408 23.242703,31.1287421 C23.0008062,31.1287122 23.0001866,31.1280251 23.0001556,30.9026693 C22.9999388,29.5185972 22.9999388,28.1345252 23.0002176,26.7504531 C23.0002486,26.5375856 23.001116,26.5364802 23.2242385,26.5363906 C24.4529611,26.5360022 25.6816837,26.5364204 26.9104064,26.5355839 C26.9870834,26.5355242 27.0656193,26.5478032 27.1398179,26.5166126 C27.1068235,26.4712904 27.1180075,26.4184993 27.1180075,26.3695921 C27.1178217,25.1994033 27.0935328,24.0284975 27.1226236,22.859205 C27.1516525,21.6913466 27.4068089,20.5653447 28.0461871,19.5494662 C28.5368273,18.7699379 29.2003703,18.1632132 30.0354531,17.7307261 C30.7625065,17.3541971 31.5438998,17.1512186 32.3563977,17.0528663 C32.5128499,17.0339249 32.6715326,16.9999557 32.8323531,17.016776 C33.0464602,17.0177619 33.2599787,16.9872583 33.4743646,17.0062297 C33.8306418,17.0302202 34.1878174,17.0024952 34.5438778,17.0200623 C35.0628652,17.0456662 35.5826582,17.0543303 36.1009641,17.0992341 C36.2824486,17.1149788 36.4649864,17.1333527 36.6477721,17.1380133 C36.7025459,17.1394175 36.7571337,17.1328746 36.8019627,17.1722215 C36.9600258,17.1739543 37.0007034,17.2524091 36.9999908,17.3998479 Z" id="Imported-Layers-Copy" fill="#FFFFFF" sketch:type="MSShapeGroup"></path>
            </g>
        </g>
    </g>
</svg>