<?xml version="1.0" encoding="UTF-8" standalone="no"?>
<svg width="60px" height="61px" viewBox="0 0 60 61" version="1.1" xmlns="http://www.w3.org/2000/svg" xmlns:xlink="http://www.w3.org/1999/xlink" xmlns:sketch="http://www.bohemiancoding.com/sketch/ns">
    <!-- Generator: Sketch 3.3.1 (12005) - http://www.bohemiancoding.com/sketch -->
    <title>Twitter Share</title>
    <desc>Created with Sketch.</desc>
    <defs></defs>
    <g id="Wait-List" stroke="none" stroke-width="1" fill="none" fill-rule="evenodd" sketch:type="MSPage">
        <g id="WEB:-Incentives" sketch:type="MSArtboardGroup" transform="translate(-690.000000, -732.000000)">
            <g id="Twitter-Share" sketch:type="MSLayerGroup" transform="translate(690.000000, 732.500000)">
                <ellipse id="Oval-1-Copy" fill="#509EDB" sketch:type="MSShapeGroup" cx="30" cy="30" rx="30" ry="30"></ellipse>
                <path d="M25.1547973,42 L23.7316432,42 C23.6842047,41.9931965 23.6367663,41.9814255 23.5891082,41.9801296 C23.1589774,41.9683585 22.7312625,41.9276458 22.3044261,41.8767819 C19.7369288,41.5709503 17.3592952,40.7360691 15.1626305,39.3973002 C15.1034422,39.3612311 15.0392026,39.3299136 15,39.2686825 C15.4064115,39.3077754 15.8135917,39.3397408 16.2216504,39.3484881 C16.8105682,39.3610151 17.3976193,39.3257019 17.9821447,39.2535637 C20.1800173,38.9823974 22.1609028,38.1852052 23.9314997,36.8790497 C23.9667491,36.8530238 24.0119914,36.8319654 24.0231921,36.7758099 C23.9972767,36.7726782 23.9802559,36.7693305 23.9630156,36.7686825 C22.9708707,36.7284017 22.0381338,36.4757019 21.1776527,35.987905 C19.8475087,35.2336933 18.916419,34.1454644 18.3938271,32.7232181 C18.3345291,32.5616631 18.3471574,32.55 18.5183531,32.5772138 C19.3257954,32.7059395 20.1277471,32.6790497 20.9236592,32.4921166 C20.9544064,32.4848812 20.9960248,32.4939525 21.0152418,32.4455724 C20.9669248,32.4329374 20.9211335,32.4203024 20.8750128,32.4088553 C19.5499202,32.0800216 18.4455483,31.4017279 17.5804551,30.362527 C16.67572,29.2757019 16.2018844,28.0272138 16.1883776,26.6169546 C16.1867304,26.450324 16.2067161,26.4397408 16.3590243,26.5169546 C17.0707111,26.8774298 17.8264323,27.0892009 18.6219052,27.1663067 C18.7017379,27.1739741 18.7834375,27.1843413 18.8857816,27.1557235 C18.8329624,27.1152268 18.7996896,27.0886609 18.7653187,27.0633909 C18.4659731,26.8430886 18.1830993,26.6050756 17.9277881,26.3354212 C16.7333709,25.0737581 16.168941,23.5834773 16.2396594,21.8599352 C16.2778738,20.9275378 16.5353812,20.0568035 16.985827,19.2386609 C17.0609379,19.1021598 17.0781783,19.1016199 17.1837069,19.2260259 C17.778335,19.9273218 18.4244645,20.5788337 19.1223151,21.1812095 C20.5914801,22.449568 22.2300839,23.4484881 24.0397736,24.17473 C25.8155317,24.887473 27.6603611,25.3052916 29.5764579,25.412851 C29.7462262,25.4224622 29.7473243,25.4195464 29.7138318,25.2485961 C29.5829368,24.5813175 29.5641591,23.9104752 29.6550828,23.237473 C29.9974743,20.7015119 31.9581546,18.6325054 34.5086312,18.1178186 C34.7531809,18.0684665 35.0019034,18.0387689 35.2486493,18 L36.2764828,18 C36.3107439,18.0071274 36.3445658,18.0177106 36.3791564,18.0210583 C37.8323987,18.1651188 39.0740348,18.7543197 40.1174615,19.7514039 C40.2321044,19.8609071 40.3337897,19.8951404 40.4891726,19.8604752 C41.6129812,19.6091793 42.6882531,19.2314255 43.7026896,18.6909287 C43.8300707,18.6231102 43.9562439,18.5532397 44.0835151,18.4850972 C44.1052578,18.4734341 44.1320517,18.4506479 44.1529159,18.4779698 C44.1629087,18.4910367 44.1567592,18.5187905 44.1525864,18.5388769 C44.1473155,18.5640389 44.1372128,18.5883369 44.1282083,18.612743 C43.6646949,19.8707343 42.869881,20.8758099 41.7468411,21.6307775 C41.7019283,21.6609071 41.6437283,21.6780778 41.6151774,21.7456803 C41.7037951,21.7680346 41.7839573,21.7420086 41.8634607,21.7299136 C42.9493843,21.5640389 43.9983016,21.2737581 45,20.825054 L45,20.8768898 C44.9810027,20.9006479 44.9606876,20.9234341 44.9432276,20.9482721 C44.1450094,22.0896328 43.1847099,23.0776458 42.0505791,23.900324 C41.9651459,23.962311 41.9426346,24.0356371 41.9443916,24.1333693 C41.959875,24.9712743 41.9455995,25.8073434 41.8460007,26.6417927 C41.6094672,28.624946 41.0476727,30.5145788 40.1714886,32.313067 C39.1973528,34.312527 37.8993836,36.0811015 36.2443081,37.5925486 C35.1959399,38.550108 34.0439099,39.3640389 32.7815195,40.025378 C30.5889178,41.1740821 28.2454355,41.7947084 25.7708385,41.9579914 C25.5656013,41.9714903 25.3579481,41.9568035 25.1547973,42" id="Imported-Layers" fill="#FFFFFF" sketch:type="MSShapeGroup"></path>
            </g>
        </g>
    </g>
</svg>