<?xml version="1.0" encoding="UTF-8" standalone="no"?>
<svg width="340px" height="79px" viewBox="0 0 340 79" version="1.1" xmlns="http://www.w3.org/2000/svg" xmlns:xlink="http://www.w3.org/1999/xlink" xmlns:sketch="http://www.bohemiancoding.com/sketch/ns">
    <!-- Generator: Sketch 3.3.1 (12005) - http://www.bohemiancoding.com/sketch -->
    <title>Text Logo</title>
    <desc>Created with Sketch.</desc>
    <defs></defs>
    <g id="Wait-List" stroke="none" stroke-width="1" fill="none" fill-rule="evenodd" sketch:type="MSPage">
        <g id="WEB:-Landing-Page" sketch:type="MSArtboardGroup" transform="translate(-550.000000, -140.000000)" fill="#6FAF46">
            <g id="Text-Logo" sketch:type="MSLayerGroup" transform="translate(550.000000, 140.000000)">
                <path d="M34.6760132,62.544439 L41.6657845,32.2734887 C37.0366626,30.355044 33.4961494,29.6046697 29.502126,29.2710673 C21.1868514,44.5483928 19.4327258,65.6577531 19.4327258,74.3304908 C19.4327258,76.9993098 20.1590794,78.2505498 20.7038447,79 C15.8018792,79 8.54018614,78.834585 8.54018614,70.1609232 C8.54018614,62.6562558 10.5865124,44.3949911 20.152627,29.2710673 C14.5243079,29.6046697 10.7109512,30.7718159 9.53108739,33.6069741 C9.98551931,33.6069741 10.7109512,35.0245532 10.7109512,36.1926235 C10.7109512,38.1933137 8.44247867,39.4445536 5.62831911,39.4445536 C2.54131605,39.4445536 0,37.8606354 0,34.6077812 C0,28.9365408 7.80645833,24.3502012 18.5183313,24.3502012 C19.7894502,24.3502012 21.3324909,24.4333708 23.2387083,24.600634 C32.4066189,11.257463 44.2080224,0 54.8286402,0 C56.9164461,0 59.820939,0.333602377 62,1.16807037 L47.7485356,62.544439 L34.6760132,62.544439 L34.6760132,62.544439 Z M48.8484848,5.64285714 C43.2121212,8.29853569 37.1999364,16.015452 31.9393939,25.3094074 C35.6966517,25.973327 39.7362524,26.8864464 43.4000318,28.2142857 L48.8484848,5.64285714 L48.8484848,5.64285714 Z" id="Fill-1" sketch:type="MSShapeGroup"></path>
                <path d="M98.2307889,20 L91.8735912,48.892994 C91.6091189,49.9976347 91.5203637,50.8470686 91.5203637,51.6126892 C91.5203637,53.9914807 92.6679047,54.7571012 95.1396004,54.7571012 C98.5831199,54.7571012 100.966957,51.5279341 102.292008,47.2779396 L106,47.2779396 C100.966957,61.1306804 93.0211322,63 88.253458,63 C83.2213115,63 80.0431609,60.1955498 79.5133197,54.9266113 C75.098873,61.8953593 70.154585,63 66.4465932,63 C61.1490779,63 57,59.940343 57,52.8020849 C57,51.1879722 57.2644723,49.317711 57.7055584,47.2779396 L63.7095287,20 L76.4230277,20 L70.0658299,48.892994 C69.8892162,49.7424279 69.8013576,50.5080484 69.8013576,51.2717856 C69.8013576,53.2277436 70.5078125,54.7571012 72.449667,54.7571012 C75.8931865,54.7571012 78.1882684,51.5279341 79.5133197,47.2779396 L85.51729,20 L98.2307889,20" id="Fill-2" sketch:type="MSShapeGroup"></path>
                <path d="M126.435518,8 L123.431738,21.325456 L128.731629,21.325456 L128.024857,24.6984095 L122.724966,24.6984095 L117.072586,49.9997664 C116.807098,51.0960463 116.7192,51.9390511 116.7192,52.6988768 C116.7192,55.0596639 117.867256,55.8194896 120.340957,55.8194896 C123.785124,55.8194896 126.9647,52.6147633 128.290345,48.3969359 L132,48.3969359 C126.9647,62.1448289 118.220642,64 113.45083,64 C108.150939,64 104,60.9635007 104,53.8792703 C104,52.2773745 104.264591,50.4212687 104.705875,48.3969359 L110.005766,24.6984095 L107.091678,24.6984095 L107.797553,21.325456 L110.712538,21.325456 L113.362035,9.68600945 L126.435518,8" id="Fill-3" sketch:type="MSShapeGroup"></path>
                <path d="M161.74809,31.3161317 C164.892864,30.729101 171,25.5322072 171,25.5322072 C169.203247,29.1370588 166.509029,34.3339526 161.74809,36.7638139 C160.67095,52.8570009 151.688097,63 140.371288,63 C132.017755,63 126,59.3115523 126,49.7555839 C126,40.1169482 131.838079,20 150.340988,20 C157.436794,20 161.209064,23.85564 161.74809,31.3161317 L161.74809,31.3161317 Z M153.766886,38.3341239 C152.338962,37.8378167 151.624547,36.6812925 151.624547,34.6154822 C151.624547,32.3839309 152.606414,30.9792531 154.125,30.3181205 C153.946396,26.8476324 152.963622,25.6086957 150.732434,25.6086957 C144.392452,25.6086957 139.125,40.7295848 139.125,48.8280009 C139.125,54.2818867 140.285471,55.5217391 143.678037,55.5217391 C148.052471,55.5217391 152.428717,48.0844557 153.766886,38.3341239 L153.766886,38.3341239 Z" id="Fill-4" sketch:type="MSShapeGroup"></path>
                <path d="M195.669686,66.9400868 C215.029378,69.6403123 227.526451,67.8567958 233,65.7692498 C232.10456,73.7747438 225.780115,78.4562435 220.962919,78.8619242 C206.629511,80.0688012 199.316901,72.9670788 183.469881,72.9670788 C182.754438,72.9670788 182.128084,72.9670788 181.411732,73.051172 L196.859667,5.92072029 C189.070701,8.92312706 184.326231,15.1774481 184.326231,24.1005752 C184.326231,28.3532917 185.489849,29.0204932 185.578938,29.7708639 C179.401764,29.7708639 176,27.6860902 176,21.6822007 C176,10.5911308 192.472465,0 207.423135,0 C208.676752,0 209.840369,0.0840932646 211.003987,0.167262427 L195.669686,66.9400868" id="Fill-5" sketch:type="MSShapeGroup"></path>
                <path d="M244.989282,33.4106796 C245.357409,33.5788007 245.725535,33.5788007 246.002098,33.5788007 C250.233689,33.5788007 256.215284,31.0644144 260.172182,28.5500281 L261,30.813626 C257.503729,34.2494276 251.430569,36.7638139 244.713654,37.7697542 C243.241146,53.2759105 234.039841,63 222.722274,63 C214.165659,63 208,59.3115523 208,49.7555839 C208,40.1169482 214.257223,20 233.212023,20 C241.124883,20 244.989282,24.6107919 244.989282,33.4106796 L244.989282,33.4106796 Z M237.887135,38.3341239 C235.795101,37.921145 235.197232,36.5164672 235.197232,34.8636358 C235.197232,32.5496719 236.492109,31.0625814 238.285714,30.4014489 C238.086425,26.9300451 237.089977,25.6086957 234.500225,25.6086957 C227.425952,25.6086957 221.25,40.7295848 221.25,48.8280009 C221.25,54.2818867 222.544876,55.5217391 226.330366,55.5217391 C231.212453,55.5217391 236.292819,48.0844557 237.887135,38.3341239 L237.887135,38.3341239 Z" id="Fill-6" sketch:type="MSShapeGroup"></path>
                <path d="M271.435696,8 L268.432013,21.325456 L273.730837,21.325456 L273.024985,24.6984095 L267.725263,24.6984095 L262.073064,49.9997664 C261.808482,51.0960463 261.71969,51.9390511 261.71969,52.6988768 C261.71969,55.0596639 262.867709,55.8194896 265.340434,55.8194896 C268.785387,55.8194896 271.965758,52.6147633 273.289567,48.3969359 L277,48.3969359 C271.965758,62.1448289 263.221083,64 258.451424,64 C253.151702,64 249,60.9635007 249,53.8792703 C249,52.2773745 249.265479,50.4212687 249.706749,48.3969359 L255.007367,24.6984095 L252.092476,24.6984095 L252.799225,21.325456 L255.71322,21.325456 L258.363529,9.68600945 L271.435696,8" id="Fill-7" sketch:type="MSShapeGroup"></path>
                <path d="M293.435696,8 L290.432013,21.325456 L295.730837,21.325456 L295.024985,24.6984095 L289.725263,24.6984095 L284.072168,49.9997664 C283.807585,51.0960463 283.71969,51.9390511 283.71969,52.6988768 C283.71969,55.0596639 284.867709,55.8194896 287.340434,55.8194896 C290.785387,55.8194896 293.965758,52.6147633 295.289567,48.3969359 L299,48.3969359 C293.965758,62.1448289 285.221083,64 280.451424,64 C275.151702,64 271,60.9635007 271,53.8792703 C271,52.2773745 271.265479,50.4212687 271.706749,48.3969359 L277.00647,24.6984095 L274.091579,24.6984095 L274.799225,21.325456 L277.71322,21.325456 L280.363529,9.68600945 L293.435696,8" id="Fill-8" sketch:type="MSShapeGroup"></path>
                <path d="M330.749002,31.3161317 C333.892864,30.729101 340,25.5322072 340,25.5322072 C338.203247,29.1370588 335.509029,34.3339526 330.749002,36.7638139 C329.67095,52.8570009 320.689009,63 309.371288,63 C301.018667,63 295,59.3115523 295,49.7555839 C295,40.1169482 300.838991,20 319.3419,20 C326.437706,20 330.209976,23.85564 330.749002,31.3161317 L330.749002,31.3161317 Z M322.766886,38.3341239 C321.338962,37.8378167 320.624547,36.6812925 320.624547,34.6154822 C320.624547,32.3839309 321.606414,30.9792531 323.125,30.3181205 C322.946396,26.8476324 321.964529,25.6086957 319.732434,25.6086957 C313.393359,25.6086957 308.125,40.7295848 308.125,48.8280009 C308.125,54.2818867 309.285471,55.5217391 312.678944,55.5217391 C317.053377,55.5217391 321.428717,48.0844557 322.766886,38.3341239 L322.766886,38.3341239 Z" id="Fill-9" sketch:type="MSShapeGroup"></path>
            </g>
        </g>
    </g>
</svg>